<svg height='100px' width='100px'  fill="#000000" xmlns="http://www.w3.org/2000/svg" xmlns:xlink="http://www.w3.org/1999/xlink" viewBox="0 0 89 95" version="1.1" xml:space="preserve" style="" x="0px" y="0px" fill-rule="evenodd" clip-rule="evenodd" stroke-linejoin="round" stroke-miterlimit="1.41421"><g transform="matrix(1,0,0,1,-5.57067,-2.5)"><g transform="matrix(1.05972,0,0,1.05972,20.8601,-8.21132)"><g transform="matrix(1.14022,0,0,1.14022,-28.857,-5.61308)"><path d="M34.045,71.603C34.045,71.603 38.06,71.738 38.964,71.897C40.009,72.081 41.495,72.22 43.187,73.109C43.374,73.208 44.625,74.161 45.061,75.389C45.522,76.689 44.745,79.429 44.013,82.677C43.51,84.909 42.752,88.811 42.234,89.305C40.622,90.842 38.382,92.51 34.848,92.405C29.96,92.26 28.222,91.558 26.543,89.297C26.077,88.67 24.818,83.337 24.109,79.361C23.518,76.044 23.864,74.859 24.159,74.437C24.871,73.42 26.495,72.611 27.101,72.422C27.583,72.272 30.25,71.83 30.759,71.774C31.729,71.666 34.045,71.603 34.045,71.603ZM80.544,59.343C79.249,61.42 75.916,62.186 74.443,62.134C71.307,62.021 67.423,59.425 67.153,54.992C66.942,51.529 69.674,47.122 74.557,46.935C77.169,46.836 79.413,48.501 79.413,48.501C79.413,48.501 77.298,38.523 77.298,38.523C77.037,38.596 76.164,38.682 75.771,38.648C74.372,38.527 73.703,36.923 73.547,36.283C73.399,35.675 73.272,35.101 74,34.461C74.539,33.989 76.738,33.212 76.738,33.212C76.926,33.164 77.541,33.1 77.825,33.177C78.089,33.248 78.45,33.494 78.617,33.646C79.122,34.106 79.529,35.46 79.561,35.575C79.604,35.738 80.185,38.046 80.383,38.821C80.972,41.12 82.602,46.687 83.748,51.707C84.926,56.866 85.613,61.45 85.613,61.45C85.613,61.45 86.012,64.395 86.084,65.19L86.087,65.217C86.186,66.319 86.212,67.503 86.183,68.388C86.159,69.105 85.561,72.218 85.138,73.997C84.731,75.709 83.177,80.852 82.906,81.233C82.634,81.616 80.62,82.94 79.673,83.343L79.668,83.346C79.239,83.528 77.743,84.259 75.549,84.271C72.695,84.286 71.433,83.507 70.642,83.169C70.642,83.169 68.058,81.814 67.687,81.349C67.476,81.085 67.459,80.809 67.393,80.379C67.393,80.379 66.528,84.983 65.882,86.243C65.44,87.105 60.829,89.353 58.736,89.328C56.4,89.301 54.227,88.566 52.803,88.052C51.808,87.692 50.731,87.155 50.193,86.243C49.571,85.188 49.444,83.226 49.071,81.722C48.584,80.074 47.091,75.466 47.285,72.799C47.395,71.291 48.855,70.322 49.039,70.184C50.159,69.341 51.564,69.184 52.889,68.93C54.316,68.656 56.021,68.546 57.599,68.54C57.819,68.541 61.098,68.612 62.612,68.835C62.804,68.865 64.508,69.15 64.681,69.188C64.646,68.641 64.698,68.097 64.796,67.557C64.986,66.507 65.714,65.731 66.101,65.365C66.718,64.782 67.545,64.488 68.345,64.219C69.993,63.663 73.474,63.401 74.798,63.422C77.203,63.461 80.26,63.981 80.592,64.031L80.544,59.343L80.544,59.343ZM22.274,66.189C22.399,66.189 25.819,66.367 26.359,66.445C26.784,67.213 27.326,67.915 27.961,68.52C28.739,69.262 29.655,69.857 30.65,70.264C31.06,70.432 31.483,70.567 31.914,70.669C31.806,70.676 29.28,70.97 29.088,71.003C28.435,71.092 27.783,71.197 27.146,71.368C26.506,71.54 24.955,71.828 23.634,73.488C23.254,73.966 22.779,74.592 22.644,75.762C22.365,78.186 24.055,83.479 24.364,84.73C24.266,84.754 21.121,84.841 19.909,84.66C15.043,83.932 15.27,82.466 15.187,82.177C14.481,79.714 12.824,73.524 12.664,71.098C12.595,70.057 12.895,68.419 14.223,67.616C15.253,66.994 17.071,66.673 18.304,66.513C19.569,66.349 22.066,66.189 22.274,66.189ZM45.033,82.51C45.033,82.51 46.038,78.338 46.095,77.837C46.299,76.054 46.072,74.722 45.507,73.964C45.268,73.644 44.253,72.121 41.976,71.468C40.552,71.059 36.507,70.644 36.074,70.627C36.929,70.661 39.079,69.262 39.857,68.52C40.608,67.804 41.229,66.953 41.68,66.018C42.016,65.32 42.257,64.577 42.394,63.814C43.1,63.752 45.793,63.711 46.007,63.714C46.539,63.726 50.523,64.203 50.523,64.203C51.104,65.021 51.873,65.675 52.651,66.308C53.614,67.091 55.439,67.578 55.56,67.607C54.808,67.658 51.351,68.148 50.678,68.338C50.015,68.526 48.436,69.216 47.7,70.006C46.888,70.877 46.458,71.697 46.355,72.263C46.136,73.465 46.354,75.169 46.582,76.005C46.609,76.097 48.112,82.011 48.112,82.011C47.912,82.073 45.033,82.51 45.033,82.51ZM33.686,54.777C37.732,54.806 41.527,57.814 41.529,62.129C41.532,66.21 38.327,69.952 33.909,69.902C30.125,69.86 26.219,66.749 26.224,62.503C26.228,59.162 28.776,54.743 33.686,54.777ZM65.84,56.818C65.983,57.315 66.4,58.942 66.004,60.954C65.82,61.886 65.393,62.743 64.983,63.6C63.755,66.163 60.567,67.342 59.723,67.565C59.974,67.575 63.708,67.994 63.708,67.994C63.717,67.915 63.799,66.628 64.794,65.289C65.408,64.464 66.539,63.608 68.073,63.257C69.461,62.938 71.536,62.702 71.918,62.669L71.93,62.668C71.819,62.631 69.789,62.034 68.533,60.577C67.085,58.897 66.416,57.043 66.358,56.839C66.186,56.83 66.013,56.824 65.84,56.818ZM57.291,51.669C61.983,51.662 65.142,55.136 65.199,58.893C65.262,63.134 62.44,66.84 57.557,66.84C52.664,66.841 49.897,62.203 49.944,59.414C50.006,55.732 52.713,51.676 57.291,51.669ZM21.333,50.913C25.086,50.558 27.468,53.584 28.046,54.781C28.182,55.064 28.299,55.357 28.395,55.656C27.912,56.31 26.771,57.198 25.902,59.29C25.323,60.681 25.282,63.025 25.397,63.66C25.067,63.859 24.722,64.031 24.363,64.172C23.747,64.415 22.779,64.653 21.964,64.649C20.361,64.64 18.673,64.449 17.089,62.985C15.6,61.609 15.009,60.257 14.74,58.23C14.509,56.487 15.668,51.449 21.333,50.913ZM49.298,61.698C48.798,62.057 48.256,62.358 47.686,62.591C47.537,62.652 47.385,62.709 47.232,62.76C48.104,62.812 48.974,62.908 49.835,63.055C49.618,62.619 49.438,62.165 49.298,61.698ZM37.854,54.613C37.877,54.374 38.219,50.962 41.366,49.3C44.09,47.862 46.963,48.161 49.301,50.158C50.715,51.365 51.194,52.954 51.297,53.292C50.685,53.938 50.173,54.679 49.786,55.481C49.386,56.312 49.121,57.207 49.004,58.122C48.898,58.954 48.914,59.802 49.05,60.63C48.503,61.076 47.191,61.865 45.838,62.1C44.264,62.374 42.524,61.821 42.524,61.821L42.519,61.819C42.5,61.462 41.996,59.176 41.634,58.449C40.818,56.809 39.479,55.452 37.854,54.613ZM58.617,44.416C61.383,40.908 65.854,40.948 68.464,43.084C69.961,44.308 70.755,46.266 70.868,46.722L70.846,46.732C70.59,46.859 68.514,48.376 67.873,49.147C65.735,51.716 66.034,54.798 66.047,55.014C65.764,55.093 65.475,55.154 65.184,55.196C64.781,54.434 64.263,53.733 63.653,53.123C62.893,52.363 61.993,51.747 61.009,51.316C59.957,50.856 58.816,50.611 57.668,50.597L57.664,50.597C57.59,50.38 56.39,47.24 58.617,44.416ZM28.141,29.885C28.719,28.735 30.615,28.035 31.477,28.389C32.391,28.766 32.851,30.472 32.851,30.472C32.859,30.509 36.211,43.56 36.211,43.56C36.211,43.56 37.673,51.721 37.641,51.785C37.31,52.451 37.075,53.163 36.944,53.895C36.926,53.993 36.911,54.092 36.897,54.191C36.355,53.99 35.792,53.845 35.22,53.757C34.822,53.697 32.995,53.697 32.597,53.757C31.792,53.881 31.004,54.119 30.266,54.464C29.936,54.619 29.616,54.794 29.309,54.988C29.309,54.988 29.029,54.512 28.904,54.261C28.635,53.719 28.303,53.211 27.918,52.746C27.918,52.746 28.856,52.694 29.325,52.68C30.683,52.636 33.339,53.09 33.607,53.13C33.607,53.13 33.568,49.348 33.568,49.348C33.398,49.551 31.937,51.548 28.811,51.598C25.657,51.65 22.788,48.836 22.781,45.376C22.775,42.465 25.226,39.374 28.749,39.263C30.938,39.194 32.656,40.6 32.656,40.6C32.656,40.6 31.144,33.449 30.95,32.549C30.722,32.612 30.231,32.891 29.801,32.706C29.097,32.404 27.543,31.073 28.141,29.885ZM54.466,51.168C53.783,51.107 51.515,51.066 51.364,51.066C51.512,51.298 52.004,52.286 52.1,52.545C52.762,52.002 54.41,51.189 54.466,51.168ZM36.404,40.305C36.461,40.293 39.506,39.942 40.825,39.918C41.993,39.897 44.453,40.179 44.453,40.179C44.229,40.713 44.068,41.273 43.973,41.844C43.842,42.631 43.837,43.439 43.958,44.227C44.075,44.991 44.311,45.736 44.655,46.428C44.828,46.775 45.028,47.108 45.252,47.424C45.104,47.414 43.871,47.439 43.507,47.495C42.77,47.608 42.05,47.826 41.374,48.141C40.281,48.652 39.316,49.415 38.562,50.351C38.248,48.388 36.664,41.311 36.404,40.305ZM44.906,43.319C44.91,40.737 46.792,36.52 51.645,36.591C56.152,36.656 57.69,40.832 57.852,42.008C57.925,42.535 57.962,43.068 57.92,43.599C57.614,43.998 57.345,44.427 57.12,44.88C56.789,45.545 56.554,46.258 56.423,46.99C56.403,47.101 56.385,47.212 56.37,47.324C56.37,47.324 55.196,48.579 54.109,49.025C52.281,49.777 50.225,49.506 50.011,49.459C49.425,48.926 48.759,48.479 48.038,48.141C47.628,47.95 47.202,47.794 46.766,47.677C46.237,47.144 44.903,45.514 44.906,43.319ZM69.585,42.643C70.265,43.282 70.832,44.04 71.25,44.88C71.48,45.343 71.665,45.83 71.8,46.331C72.066,46.237 72.337,46.156 72.612,46.089C73.319,45.916 74.048,45.834 74.776,45.844C74.776,45.828 74.797,44.786 74.464,44.409C74.377,44.311 73.996,43.861 73.512,43.568C72.204,42.774 69.885,42.671 69.585,42.643ZM54.305,16.935C54.305,16.935 53.355,17.107 52.964,16.89C52.213,16.474 51.767,15.785 51.843,15.163C52.014,13.77 53.86,13.647 54.898,13.883C55.703,14.066 55.8,15.302 55.8,15.302C55.914,15.796 59.483,30.589 59.664,32.046C59.833,33.404 59.977,35.598 59.921,36.144C59.786,37.469 58.922,40.751 58.74,41.352C58.601,40.764 58.39,40.194 58.115,39.655C57.141,37.747 54.845,35.946 52.551,35.642C52.203,35.596 50.423,35.647 50.074,35.673C48.179,35.814 46.961,36.974 46.483,37.387C46.423,37.185 46.29,36.08 46.29,36.08L46.29,36.08C46.471,35.622 46.59,35.14 46.642,34.652C46.642,34.652 47.623,33.717 48.625,33.238C49.171,32.977 51.08,32.813 52.32,32.794C53.615,32.774 56.104,33.075 56.395,33.119L56.364,30.145C56.07,30.495 55.136,31.789 52.582,31.906C50.027,32.023 47.869,29.409 47.864,27.443C47.86,25.845 48.514,22.511 52.388,22.307C54.071,22.218 55.647,23.266 55.647,23.266C55.35,21.864 54.458,17.643 54.305,16.935ZM66.587,29.623C70.421,29.667 72.544,32.835 72.501,35.055C72.441,38.105 70.252,40.708 66.804,40.791C63.661,40.867 60.953,38.285 60.889,35.47C60.804,31.712 64.259,29.596 66.587,29.623ZM36.404,40.304L36.404,40.305L36.404,40.305L36.404,40.304L36.404,40.304ZM44.454,40.177C44.454,40.177 44.453,40.179 44.453,40.179L44.454,40.177ZM40.578,29.344C43.892,29.303 45.512,32.075 45.582,34.06C45.674,36.659 43.293,38.799 40.74,38.854C37.628,38.921 35.583,36.47 35.527,34.335C35.446,31.195 38.173,29.374 40.578,29.344Z"></path></g></g></g></svg>